# xmcd
#
# Track frame offsets:
#	150
#	13562
#	33915
#	50277
#	73602
#	84742
#	103635
#	116627
#	137755
#	166295
#	181375
#	195522
#	212967
#	224745
#	240182
#	256440
#	273847
#	285815
#
# Disc length: 4076
#
# Revision: 2
# Processed by: cddbd v1.5.1PL0 Copyright (c) Steve Scherf et al.
# Submitted via: NotifyCDPlayer 1.60beta16
# Normalized: r1:DSETVAR1,TDELIM( - )
#
DISCID=fd0fea12
DTITLE=Various Artist - Get Weaving Vol.3
DYEAR=1900
DGENRE=
TTITLE0=Devils Right Hand, The - Barrence Whitfield With Tom Russell
TTITLE1=Long Last Look - Coyotes, The
TTITLE2=Cry Cry Darling - Kathy Chiavola
TTITLE3=Rock Me Rosalie - Terry Clarke, Michael Messer and Jesse Taylor
TTITLE4=Your Best Friend - Blazers, The
TTITLE5=Someone To Rely On - On Wes McGhee
TTITLE6=If Heaven Is Not A Place To Go - Ray Wylie Hubbard
TTITLE7=Livin' And Dyin' For Love - Pinto Bennett
TTITLE8=She Loved Moses - Amy Fradon
TTITLE9=Man Who Would Be King, The - John Stewart
TTITLE10=Pink City Boogie - Bobby Valentino
TTITLE11=Honky Tonk - Balham Alligators, The
TTITLE12=Going Back To California - Steven Young
TTITLE13=I Don't Believe It Yet - Cathryn Craig
TTITLE14=Between Crawling To Meet You And Walking The Line - Tequila Sisters, The
TTITLE15=Evangeline Hotel - Katy Moffatt
TTITLE16=Swamp Rat - Pierre Le Rue
TTITLE17=Roll Columbia Roll - Sid Griffin and The Coal Porters
EXTD=Weaving Records 1996 GWCD 006
EXTT0=
EXTT1=
EXTT2=
EXTT3=
EXTT4=
EXTT5=
EXTT6=
EXTT7=
EXTT8=
EXTT9=
EXTT10=
EXTT11=
EXTT12=
EXTT13=
EXTT14=
EXTT15=
EXTT16=
EXTT17=
PLAYORDER=
